<svg width="36" height="36" viewBox="0 0 36 36" fill="none" xmlns="http://www.w3.org/2000/svg">
<path d="M30.02 2.42578H5.95752C4.146 2.42578 2.67627 3.89551 2.67627 5.70703V29.7695C2.67627 31.5811 4.146 33.0508 5.95752 33.0508H30.02C31.8315 33.0508 33.3013 31.5811 33.3013 29.7695V5.70703C33.3013 3.89551 31.8315 2.42578 30.02 2.42578ZM21.6323 28.6553C21.0581 28.7578 20.8462 28.4023 20.8462 28.1084C20.8462 27.7393 20.8599 25.8525 20.8599 24.3281C20.8599 23.2617 20.5044 22.585 20.0874 22.2295C22.6167 21.9492 25.2827 21.6006 25.2827 17.2324C25.2827 15.9883 24.8384 15.3662 24.1138 14.5664C24.23 14.2725 24.6196 13.0625 23.9976 11.4902C23.0474 11.1963 20.8735 12.7139 20.8735 12.7139C19.9712 12.4609 18.9937 12.3311 18.0298 12.3311C17.0659 12.3311 16.0884 12.4609 15.186 12.7139C15.186 12.7139 13.0122 11.1963 12.062 11.4902C11.4399 13.0557 11.8228 14.2656 11.9458 14.5664C11.2212 15.3662 10.8794 15.9883 10.8794 17.2324C10.8794 21.5801 13.4292 21.9492 15.9585 22.2295C15.6304 22.5234 15.3364 23.0293 15.2339 23.7539C14.5845 24.0479 12.9233 24.5537 11.9321 22.8037C11.3101 21.7236 10.189 21.6348 10.189 21.6348C9.08154 21.6211 10.1138 22.332 10.1138 22.332C10.8521 22.6738 11.3716 23.9863 11.3716 23.9863C12.0347 26.0166 15.2065 25.333 15.2065 25.333C15.2065 26.2832 15.2202 27.8281 15.2202 28.1084C15.2202 28.4023 15.0151 28.7578 14.4341 28.6553C9.92236 27.1445 6.76416 22.8516 6.76416 17.834C6.76416 11.5586 11.563 6.79395 17.8384 6.79395C24.1138 6.79395 29.1997 11.5586 29.1997 17.834C29.2065 22.8516 26.144 27.1514 21.6323 28.6553ZM14.9263 24.4785C14.7964 24.5059 14.6733 24.4512 14.6597 24.3623C14.646 24.2598 14.7349 24.1709 14.8647 24.1436C14.9946 24.1299 15.1177 24.1846 15.1313 24.2734C15.1519 24.3623 15.063 24.4512 14.9263 24.4785ZM14.2769 24.417C14.2769 24.5059 14.1743 24.5811 14.0376 24.5811C13.8872 24.5947 13.7847 24.5195 13.7847 24.417C13.7847 24.3281 13.8872 24.2529 14.0239 24.2529C14.1538 24.2393 14.2769 24.3145 14.2769 24.417ZM13.3403 24.3418C13.313 24.4307 13.1763 24.4717 13.0601 24.4307C12.9302 24.4033 12.8413 24.3008 12.8687 24.2119C12.896 24.123 13.0327 24.082 13.1489 24.1094C13.2856 24.1504 13.3745 24.2529 13.3403 24.3418ZM12.4995 23.9727C12.438 24.0479 12.3081 24.0342 12.2056 23.9316C12.103 23.8428 12.0757 23.7129 12.144 23.6514C12.2056 23.5762 12.3354 23.5898 12.438 23.6924C12.5269 23.7812 12.561 23.918 12.4995 23.9727ZM11.8774 23.3506C11.8159 23.3916 11.6997 23.3506 11.6245 23.248C11.5493 23.1455 11.5493 23.0293 11.6245 22.9814C11.6997 22.9199 11.8159 22.9678 11.8774 23.0703C11.9526 23.1729 11.9526 23.2959 11.8774 23.3506ZM11.4331 22.6875C11.3716 22.749 11.269 22.7148 11.1938 22.6465C11.1187 22.5576 11.105 22.4551 11.1665 22.4072C11.228 22.3457 11.3306 22.3799 11.4058 22.4482C11.481 22.5371 11.4946 22.6396 11.4331 22.6875ZM10.9751 22.1816C10.9478 22.2432 10.8589 22.2568 10.7837 22.209C10.6948 22.168 10.6538 22.0928 10.6812 22.0312C10.7085 21.9902 10.7837 21.9697 10.8726 22.0039C10.9614 22.0518 11.0024 22.127 10.9751 22.1816Z" fill="white"/>
</svg>
