<svg width="15" height="15" viewBox="0 0 15 15" fill="none" xmlns="http://www.w3.org/2000/svg">
<path d="M3.67383 14.5024H0.790061V5.21567H3.67383V14.5024ZM2.23039 3.94887C1.30826 3.94887 0.560303 3.18506 0.560303 2.2629C0.560303 1.81996 0.736258 1.39515 1.04946 1.08194C1.36266 0.768733 1.78746 0.592773 2.23039 0.592773C2.67333 0.592773 3.09812 0.768733 3.41133 1.08194C3.72453 1.39515 3.90049 1.81996 3.90049 2.2629C3.90049 3.18506 3.15222 3.94887 2.23039 3.94887ZM14.4669 14.5024H11.5893V9.9817C11.5893 8.9043 11.5676 7.52261 10.09 7.52261C8.59065 7.52261 8.36089 8.69316 8.36089 9.90408V14.5024H5.48023V5.21567H8.24602V6.48247H8.28638C8.67138 5.75282 9.61183 4.9828 11.0149 4.9828C13.9335 4.9828 14.47 6.90474 14.47 9.40108V14.5024H14.4669Z" fill="#D3D3D3"/>
</svg>
