<svg width="15" height="15" viewBox="0 0 21 21" fill="none" xmlns="http://www.w3.org/2000/svg">
<mask id="mask0_238_70" style="mask-type:alpha" maskUnits="userSpaceOnUse" x="0" y="0" width="21" height="21">
<rect x="0.515137" y="0.592773" width="20" height="20" fill="#D9D9D9"/>
</mask>
<g mask="url(#mask0_238_70)">
<path d="M17.1502 18.2621C15.3938 18.2621 13.6585 17.8795 11.9444 17.1142C10.2301 16.3489 8.66854 15.2627 7.25979 13.8556C5.8509 12.4484 4.76389 10.8872 3.99875 9.17188C3.23347 7.4566 2.85083 5.72022 2.85083 3.96272C2.85083 3.66577 2.9493 3.41827 3.14625 3.22021C3.34333 3.0223 3.58965 2.92334 3.88521 2.92334H7.25521C7.52604 2.92334 7.75778 3.00341 7.95041 3.16355C8.14305 3.32369 8.26326 3.52897 8.31104 3.77938L8.8477 6.59126C8.88868 6.86334 8.88257 7.09403 8.82937 7.28334C8.77604 7.47265 8.67389 7.63778 8.52291 7.77876L6.47208 9.78063C6.73666 10.258 7.04993 10.723 7.41187 11.1756C7.77396 11.6283 8.1775 12.0701 8.6225 12.5013C9.03652 12.9151 9.46305 13.2945 9.90208 13.6394C10.341 13.9842 10.8011 14.2961 11.2825 14.575L13.2756 12.5969C13.4372 12.4385 13.6352 12.3249 13.8698 12.2558C14.1044 12.1867 14.3438 12.1726 14.5881 12.2135L17.3285 12.7821C17.5928 12.8575 17.8016 12.9856 17.9548 13.1663C18.108 13.347 18.1846 13.5625 18.1846 13.8129V17.2227C18.1846 17.5197 18.0855 17.7672 17.8873 17.9652C17.6891 18.1631 17.4434 18.2621 17.1502 18.2621ZM5.56583 8.01292L6.93604 6.68292L6.59166 4.81917H4.7725C4.83527 5.36542 4.92659 5.90459 5.04646 6.43667C5.16632 6.96876 5.33944 7.49417 5.56583 8.01292ZM13.0442 15.4963C13.566 15.7224 14.099 15.9032 14.6431 16.0388C15.1874 16.1743 15.736 16.2663 16.2887 16.3146V14.5063L14.43 14.1204L13.0442 15.4963Z" fill="#D3D3D3"/>
</g>
</svg>
