<svg width="36" height="36" viewBox="0 0 36 36" fill="none" xmlns="http://www.w3.org/2000/svg">
<path d="M31.1138 2.42578H4.85693C3.65381 2.42578 2.67627 3.41699 2.67627 4.63379V30.8428C2.67627 32.0596 3.65381 33.0508 4.85693 33.0508H31.1138C32.3169 33.0508 33.3013 32.0596 33.3013 30.8428V4.63379C33.3013 3.41699 32.3169 2.42578 31.1138 2.42578ZM11.9321 28.6758H7.39307V14.0605H11.939V28.6758H11.9321ZM9.6626 12.0645C8.20654 12.0645 7.03076 10.8818 7.03076 9.43262C7.03076 7.9834 8.20654 6.80078 9.6626 6.80078C11.1118 6.80078 12.2944 7.9834 12.2944 9.43262C12.2944 10.8887 11.1187 12.0645 9.6626 12.0645ZM28.9468 28.6758H24.4077V21.5664C24.4077 19.8711 24.3735 17.6904 22.0493 17.6904C19.6841 17.6904 19.3218 19.5361 19.3218 21.4434V28.6758H14.7827V14.0605H19.1372V16.0566H19.1987C19.8071 14.9082 21.2905 13.6982 23.4985 13.6982C28.0923 13.6982 28.9468 16.7266 28.9468 20.6641V28.6758Z" fill="white"/>
</svg>
