<svg width="330" height="57" viewBox="0 0 330 57" fill="none" xmlns="http://www.w3.org/2000/svg">
<path fill-rule="evenodd" clip-rule="evenodd" d="M57.7752 28.4976C57.7752 13.0486 45.0601 0.524658 29.3752 0.524658C13.6903 0.524658 0.97522 13.0486 0.97522 28.4976C0.97522 43.9467 13.6903 56.4705 29.3752 56.4705C45.0601 56.4705 57.7752 43.9467 57.7752 28.4976ZM18.189 43.191C17.1593 43.191 16.3247 42.3799 16.3247 41.3794V15.5589C16.3247 14.5899 17.1331 13.8041 18.1305 13.8041C18.8031 13.8041 19.42 14.1673 19.7313 14.7467L29.3752 32.691L39.0191 14.7467C39.3306 14.1673 39.9473 13.8041 40.62 13.8041C41.6171 13.8041 42.4257 14.5899 42.4257 15.5589V26.8873C42.4257 27.8878 41.5911 28.6988 40.5614 28.6988C39.5317 28.6988 38.6971 27.8878 38.6971 26.8873V22.6604L31.2733 36.0882C30.9021 36.7595 30.1813 37.1782 29.3974 37.1782C28.6103 37.1782 27.8874 36.7563 27.5177 36.0813L20.0535 22.4593V41.3794C20.0535 42.3799 19.2187 43.191 18.189 43.191ZM40.5614 31.5898C41.5911 31.5898 42.4258 32.3306 42.4258 33.2446V41.335C42.4258 42.2488 41.5911 42.9897 40.5614 42.9897C39.5318 42.9897 38.6971 42.2488 38.6971 41.335V33.2446C38.6971 32.3306 39.5318 31.5898 40.5614 31.5898Z" fill="#DCDCDC"/>
<path d="M71.6709 43.0179V13.1232H77.0092L87.1307 33.0246L97.2095 13.1232H102.548V43.0179H98.0209V20.9386L88.8817 38.7473H85.3797L76.1978 20.9813V43.0179H71.6709Z" fill="#DCDCDC"/>
<path d="M110.16 17.821C109.305 17.821 108.594 17.5647 108.024 17.0522C107.483 16.5113 107.213 15.8422 107.213 15.045C107.213 14.2478 107.483 13.593 108.024 13.0805C108.594 12.5396 109.305 12.2691 110.16 12.2691C111.014 12.2691 111.711 12.5396 112.252 13.0805C112.822 13.593 113.106 14.2478 113.106 15.045C113.106 15.8422 112.822 16.5113 112.252 17.0522C111.711 17.5647 111.014 17.821 110.16 17.821ZM107.896 43.0179V21.8354H112.423V43.0179H107.896Z" fill="#DCDCDC"/>
<path d="M127.581 43.5304C125.503 43.5304 123.638 43.0606 121.986 42.1211C120.364 41.1815 119.082 39.8861 118.143 38.2348C117.232 36.555 116.776 34.6189 116.776 32.4267C116.776 30.2344 117.232 28.3126 118.143 26.6613C119.082 24.9815 120.364 23.6718 121.986 22.7322C123.638 21.7927 125.503 21.3229 127.581 21.3229C130.2 21.3229 132.393 22.0062 134.158 23.3728C135.952 24.7395 137.105 26.5901 137.617 28.9247H132.877C132.592 27.7574 131.966 26.8463 130.998 26.1915C130.029 25.5366 128.891 25.2092 127.581 25.2092C126.471 25.2092 125.446 25.4939 124.506 26.0634C123.567 26.6043 122.812 27.4157 122.243 28.4976C121.673 29.5511 121.389 30.8608 121.389 32.4267C121.389 33.9926 121.673 35.3165 122.243 36.3984C122.812 37.4518 123.567 38.2633 124.506 38.8327C125.446 39.4021 126.471 39.6868 127.581 39.6868C128.891 39.6868 130.029 39.3594 130.998 38.7046C131.966 38.0497 132.592 37.1244 132.877 35.9286H137.617C137.133 38.2063 135.994 40.0427 134.201 41.4378C132.407 42.8329 130.2 43.5304 127.581 43.5304Z" fill="#DCDCDC"/>
<path d="M141.673 43.0179V12.2691H146.199V25.2519C146.911 24.0277 147.893 23.0739 149.146 22.3906C150.427 21.6788 151.837 21.3229 153.374 21.3229C155.908 21.3229 157.901 22.1201 159.353 23.7145C160.805 25.3089 161.531 27.6862 161.531 30.8465V43.0179H157.047V31.3163C157.047 27.2164 155.41 25.1665 152.136 25.1665C150.427 25.1665 149.004 25.7644 147.865 26.9602C146.755 28.156 146.199 29.8643 146.199 32.085V43.0179H141.673Z" fill="#DCDCDC"/>
<path d="M173.183 43.5304C171.39 43.5304 169.909 43.2315 168.742 42.6336C167.575 42.0357 166.706 41.2527 166.137 40.2847C165.567 39.2882 165.283 38.2063 165.283 37.039C165.283 34.9891 166.08 33.3662 167.674 32.1704C169.269 30.9746 171.546 30.3767 174.507 30.3767H180.059V29.9924C180.059 28.3411 179.604 27.1026 178.693 26.2769C177.81 25.4512 176.657 25.0384 175.233 25.0384C173.981 25.0384 172.884 25.3516 171.945 25.978C171.034 26.5758 170.479 27.4727 170.279 28.6685H165.752C165.895 27.131 166.407 25.8214 167.29 24.7395C168.201 23.6291 169.34 22.7892 170.706 22.2198C172.102 21.6219 173.625 21.3229 175.276 21.3229C178.237 21.3229 180.529 22.1059 182.152 23.6718C183.775 25.2092 184.586 27.3161 184.586 29.9924V43.0179H180.657L180.273 39.3879C179.675 40.5552 178.807 41.5374 177.668 42.3346C176.529 43.1318 175.034 43.5304 173.183 43.5304ZM174.08 39.8576C175.305 39.8576 176.329 39.5729 177.155 39.0035C178.009 38.4056 178.664 37.6227 179.12 36.6546C179.604 35.6866 179.903 34.6189 180.017 33.4516H174.977C173.183 33.4516 171.902 33.7648 171.134 34.3912C170.393 35.0175 170.023 35.8005 170.023 36.7401C170.023 37.7081 170.379 38.4768 171.091 39.0462C171.831 39.5872 172.828 39.8576 174.08 39.8576Z" fill="#DCDCDC"/>
<path d="M189.01 43.0179V12.2691H193.537V43.0179H189.01Z" fill="#DCDCDC"/>
<path d="M217.832 43.5304C215.64 43.5304 213.732 43.1318 212.11 42.3346C210.487 41.5374 209.234 40.4271 208.351 39.0035C207.469 37.58 207.028 35.9286 207.028 34.0495H210.786C210.786 35.2168 211.056 36.2987 211.597 37.2952C212.138 38.2633 212.921 39.0462 213.946 39.6441C214.999 40.2135 216.295 40.4982 217.832 40.4982C219.854 40.4982 221.42 40.0142 222.53 39.0462C223.64 38.0782 224.196 36.8682 224.196 35.4161C224.196 34.2204 223.939 33.2666 223.427 32.5548C222.914 31.8145 222.217 31.2166 221.334 30.7611C220.48 30.3056 219.484 29.907 218.345 29.5653C217.234 29.2237 216.067 28.8393 214.843 28.4122C212.537 27.615 210.828 26.6328 209.718 25.4655C208.608 24.2697 208.052 22.718 208.052 20.8104C208.024 19.216 208.394 17.8067 209.163 16.5825C209.932 15.3297 211.014 14.3617 212.409 13.6784C213.832 12.9666 215.512 12.6107 217.448 12.6107C219.356 12.6107 221.007 12.9666 222.402 13.6784C223.826 14.3902 224.922 15.3724 225.69 16.6252C226.488 17.8779 226.9 19.3015 226.929 20.8958H223.171C223.171 20.0702 222.957 19.2588 222.53 18.4616C222.103 17.6359 221.448 16.9668 220.566 16.4543C219.711 15.9419 218.63 15.6856 217.32 15.6856C215.697 15.6572 214.359 16.07 213.305 16.9241C212.28 17.7783 211.768 18.9598 211.768 20.4688C211.768 21.75 212.124 22.7322 212.836 23.4155C213.576 24.0989 214.601 24.6683 215.911 25.1238C217.22 25.5509 218.729 26.0491 220.437 26.6186C221.861 27.131 223.142 27.7289 224.281 28.4122C225.42 29.0955 226.302 29.9781 226.929 31.0601C227.584 32.142 227.911 33.5228 227.911 35.2026C227.911 36.6262 227.541 37.9785 226.801 39.2597C226.061 40.5125 224.936 41.5374 223.427 42.3346C221.946 43.1318 220.082 43.5304 217.832 43.5304ZM217.405 10.8171L211.554 7.3151V4.53916L217.405 8.12653L223.256 4.53916V7.3151L217.405 10.8171Z" fill="#DCDCDC"/>
<path d="M232.785 43.0179V12.2691H236.372V30.7611L245.042 21.8354H249.441L240.045 31.4017L250.636 43.0179H246.067L236.372 32.0423V43.0179H232.785Z" fill="#DCDCDC"/>
<path d="M262.414 43.5304C260.421 43.5304 258.627 43.0749 257.033 42.1638C255.438 41.2527 254.171 39.9715 253.232 38.3202C252.321 36.6404 251.865 34.6759 251.865 32.4267C251.865 30.1774 252.335 28.2272 253.275 26.5758C254.214 24.896 255.481 23.6006 257.076 22.6895C258.698 21.7785 260.506 21.3229 262.499 21.3229C264.492 21.3229 266.286 21.7785 267.88 22.6895C269.475 23.6006 270.727 24.896 271.639 26.5758C272.578 28.2272 273.048 30.1774 273.048 32.4267C273.048 34.6759 272.578 36.6404 271.639 38.3202C270.699 39.9715 269.418 41.2527 267.795 42.1638C266.201 43.0749 264.407 43.5304 262.414 43.5304ZM262.414 40.4555C263.638 40.4555 264.777 40.1566 265.83 39.5587C266.884 38.9608 267.738 38.064 268.393 36.8682C269.048 35.6724 269.375 34.1919 269.375 32.4267C269.375 30.6615 269.048 29.181 268.393 27.9852C267.766 26.7894 266.927 25.8925 265.873 25.2946C264.82 24.6967 263.695 24.3978 262.499 24.3978C261.275 24.3978 260.136 24.6967 259.083 25.2946C258.029 25.8925 257.175 26.7894 256.52 27.9852C255.865 29.181 255.538 30.6615 255.538 32.4267C255.538 34.1919 255.865 35.6724 256.52 36.8682C257.175 38.064 258.015 38.9608 259.04 39.5587C260.093 40.1566 261.218 40.4555 262.414 40.4555Z" fill="#DCDCDC"/>
<path d="M285.766 43.5304C283.26 43.5304 281.267 42.7759 279.787 41.267C278.306 39.7295 277.566 37.3807 277.566 34.2204V21.8354H281.153V33.836C281.153 38.249 282.961 40.4555 286.577 40.4555C288.428 40.4555 289.951 39.8007 291.147 38.491C292.371 37.1529 292.983 35.2596 292.983 32.811V21.8354H296.571V43.0179H293.325L293.069 39.217C292.414 40.5552 291.432 41.6086 290.122 42.3773C288.841 43.1461 287.389 43.5304 285.766 43.5304Z" fill="#DCDCDC"/>
<path d="M302.475 43.0179V12.2691H306.063V43.0179H302.475Z" fill="#DCDCDC"/>
<path d="M318.989 43.5304C317.224 43.5304 315.758 43.2315 314.59 42.6336C313.423 42.0357 312.555 41.2385 311.985 40.242C311.416 39.2455 311.131 38.1636 311.131 36.9963C311.131 34.8325 311.957 33.1669 313.608 31.9996C315.26 30.8323 317.509 30.2486 320.356 30.2486H326.079V29.9924C326.079 28.1418 325.595 26.7467 324.627 25.8071C323.659 24.8391 322.363 24.3551 320.74 24.3551C319.345 24.3551 318.135 24.711 317.11 25.4228C316.114 26.1061 315.487 27.1168 315.231 28.4549H311.558C311.701 26.9175 312.213 25.6221 313.096 24.5686C314.007 23.5152 315.131 22.718 316.47 22.177C317.808 21.6076 319.231 21.3229 320.74 21.3229C323.701 21.3229 325.922 22.1201 327.402 23.7145C328.911 25.2804 329.666 27.373 329.666 29.9924V43.0179H326.463L326.249 39.217C325.652 40.4128 324.769 41.4378 323.602 42.2919C322.463 43.1176 320.925 43.5304 318.989 43.5304ZM319.544 40.4982C320.911 40.4982 322.078 40.1424 323.046 39.4306C324.043 38.7188 324.797 37.7935 325.31 36.6546C325.822 35.5158 326.079 34.32 326.079 33.0673V33.0246H320.655C318.548 33.0246 317.053 33.3947 316.171 34.1349C315.316 34.8467 314.889 35.7436 314.889 36.8255C314.889 37.9358 315.288 38.8327 316.085 39.516C316.911 40.1708 318.064 40.4982 319.544 40.4982Z" fill="#DCDCDC"/>
</svg>
