<svg width="32" height="32" viewBox="0 0 33 32" fill="none" xmlns="http://www.w3.org/2000/svg">
<g clip-path="url(#clip0_111_83)">
<path d="M29.0325 2H21.0325C19.3762 2 18.0325 3.34375 18.0325 5V13C18.0325 14.6562 19.3762 16 21.0325 16H26.0325V20C26.0325 22.2062 24.2387 24 22.0325 24H21.5325C20.7012 24 20.0325 24.6688 20.0325 25.5V28.5C20.0325 29.3312 20.7012 30 21.5325 30H22.0325C27.5575 30 32.0325 25.525 32.0325 20V5C32.0325 3.34375 30.6887 2 29.0325 2ZM11.0325 2H3.03247C1.37622 2 0.0324707 3.34375 0.0324707 5V13C0.0324707 14.6562 1.37622 16 3.03247 16H8.03247V20C8.03247 22.2062 6.23872 24 4.03247 24H3.53247C2.70122 24 2.03247 24.6688 2.03247 25.5V28.5C2.03247 29.3312 2.70122 30 3.53247 30H4.03247C9.55747 30 14.0325 25.525 14.0325 20V5C14.0325 3.34375 12.6887 2 11.0325 2Z" fill="#386EEB"/>
</g>
<defs>
<clipPath id="clip0_111_83">
<rect width="32" height="32" fill="white" transform="translate(0.0324707)"/>
</clipPath>
</defs>
</svg>
