<svg width="1491" height="1020" viewBox="0 0 1491 1020" fill="none" xmlns="http://www.w3.org/2000/svg">
<g filter="url(#filter0_f_234_128)">
<path d="M731.964 288.073C764.185 335.525 799.069 380.936 832.195 427.628C870.481 481.595 907.861 536.414 949.465 587.328C1003.92 653.967 1061.76 723.841 1141.72 750.731C1181.48 764.104 1222.86 766.071 1260.38 745.221" stroke="#5F52B0" stroke-opacity="0.5" stroke-width="80" stroke-linecap="round"/>
<path d="M893.695 487.979C1019.32 534.522 1155.79 536.458 1286.87 546.865" stroke="#5F52B0" stroke-opacity="0.5" stroke-width="80" stroke-linecap="round"/>
<path d="M681.771 456.986C693.026 518.872 707.041 580.494 683.94 641.911C649.606 733.191 556.617 777.042 483.79 822.704" stroke="#5F52B0" stroke-opacity="0.5" stroke-width="80" stroke-linecap="round"/>
<path d="M673.406 320.616C621.29 345.646 566.08 364.777 511.21 380.536C426.215 404.947 340.051 420.004 252.192 420.31C232.553 420.379 200.962 408.828 191 433.741" stroke="#5F52B0" stroke-opacity="0.5" stroke-width="80" stroke-linecap="round"/>
<path d="M434.991 670.837C457.913 655.806 480.664 640.403 503.309 624.864C532.115 605.098 563.577 585.59 583.71 554.355C606.565 518.897 623.314 477.496 642.423 439.423C655.397 413.572 670.775 388.228 678.208 359.529C682.049 344.699 688.136 331.262 694.319 317.517" stroke="#5F52B0" stroke-opacity="0.5" stroke-width="80" stroke-linecap="round"/>
</g>
<g filter="url(#filter1_f_234_128)">
<path d="M779.483 190C743.667 214.821 707.786 239.962 674.057 268.227C645.866 291.851 622.839 317.387 604.456 350.902C594.015 369.939 585.948 387.701 570.291 402.33C552.017 419.405 530.884 434.217 509.671 446.272C466.626 470.733 419.14 482.101 375.838 505.512C354.649 516.968 334.265 524.095 311.216 528.839" stroke="#0A4EBD" stroke-opacity="0.5" stroke-width="80" stroke-linecap="round"/>
<path d="M765.426 212.459C767.285 223.628 767.674 227.318 770.892 239.258C776.641 260.586 782.894 285.233 797.151 301.807C816.229 323.986 848.618 329.485 873.78 336.581C917.596 348.938 961.187 360.154 1003.9 376.888C1037.68 390.12 1068.64 407.044 1099.76 426.309C1138.57 450.327 1179.76 467.159 1221.39 483.921" stroke="#0A4EBD" stroke-opacity="0.5" stroke-width="80" stroke-linecap="round"/>
<path d="M772.454 246.636C774.194 268.291 776.12 289.962 778.262 311.572C781.61 345.342 786.464 381.286 802.032 411.173C816.478 438.907 841.587 459.369 864.311 478.062C891.188 500.171 919.292 519.971 948.164 538.604" stroke="#185CDA" stroke-opacity="0.5" stroke-width="80" stroke-linecap="round"/>
<path d="M798.811 236.871C821.156 235.637 836.789 234.268 859.138 235.027C883.432 235.851 907.18 239.782 930.984 244.9C953.572 249.757 976.774 252.943 999.12 259.005C1033.84 268.422 1065.88 287.235 1101.03 295.46" stroke="#185CDA" stroke-opacity="0.5" stroke-width="80" stroke-linecap="round"/>
</g>
<g filter="url(#filter2_f_234_128)">
<path d="M877.347 829.537C909.42 802.208 941.515 774.602 971.086 744.825C995.801 719.938 1015.18 694.457 1028.96 663.272C1036.78 645.558 1042.43 629.351 1055.96 614.283C1071.75 596.696 1090.65 580.433 1109.99 566.431C1149.23 538.02 1194.54 519.576 1234.17 491.983C1253.57 478.481 1272.73 468.707 1294.82 460.393" stroke="#0A4EBD" stroke-opacity="0.5" stroke-width="80" stroke-linecap="round"/>
<path d="M888.29 808.308C885.013 799.439 884.151 796.465 879.436 787.218C871.013 770.7 861.662 751.537 845.472 740.567C823.806 725.889 791.187 727.524 765.479 726.462C720.714 724.613 676.317 723.664 632.069 717.989C597.081 713.503 564.39 705.43 531.235 695.455C489.899 683.019 447.141 676.973 403.953 671.07" stroke="#0A4EBD" stroke-opacity="0.5" stroke-width="80" stroke-linecap="round"/>
<path d="M876.942 781.422C872.426 763.869 867.723 746.339 862.816 728.901C855.148 701.649 845.714 672.889 826.509 651.175C808.688 631.025 781.304 618.915 756.497 607.81C727.157 594.676 696.908 583.684 666.053 573.801" stroke="#185CDA" stroke-opacity="0.5" stroke-width="80" stroke-linecap="round"/>
<path d="M852.24 794.513C830.386 799.794 815.162 803.906 793.047 807.542C769.006 811.494 745.102 812.777 720.989 813.089C698.106 813.386 674.836 815.179 652.037 814.435C616.614 813.278 582.612 803.852 546.919 803.762" stroke="#185CDA" stroke-opacity="0.5" stroke-width="80" stroke-linecap="round"/>
</g>
<g filter="url(#filter3_f_234_128)">
<path d="M846.991 687.918C881.826 658.235 916.685 628.252 948.802 595.911C975.646 568.881 996.696 541.205 1011.65 507.334C1020.15 488.096 1026.29 470.493 1040.98 454.127C1058.14 435.026 1078.67 417.362 1099.67 402.154C1142.29 371.297 1191.5 351.264 1234.55 321.295C1255.61 306.63 1276.42 296.015 1300.41 286.985" stroke="#3CA1FF" stroke-opacity="0.5" stroke-width="80" stroke-linecap="round"/>
<path d="M858.875 664.86C855.317 655.227 854.381 651.997 849.259 641.954C840.111 624.013 829.955 603.2 812.37 591.286C788.839 575.344 753.41 577.12 725.489 575.967C676.869 573.958 628.649 572.927 580.591 566.764C542.59 561.891 507.084 553.123 471.074 542.289C426.177 528.782 379.737 522.216 332.83 515.804" stroke="#3CA1FF" stroke-opacity="0.5" stroke-width="80" stroke-linecap="round"/>
<path d="M846.551 635.659C841.646 616.595 836.538 597.555 831.209 578.615C822.88 549.016 812.633 517.78 791.775 494.196C772.419 472.311 742.677 459.157 715.734 447.096C683.867 432.832 651.014 420.893 617.501 410.159" stroke="#3CA1FF" stroke-opacity="0.5" stroke-width="80" stroke-linecap="round"/>
<path d="M819.722 649.878C795.985 655.613 779.451 660.079 755.431 664.028C729.319 668.32 703.357 669.714 677.167 670.053C652.315 670.375 627.04 672.323 602.278 671.514C563.805 670.258 526.874 660.02 488.107 659.923" stroke="#3CA1FF" stroke-opacity="0.5" stroke-width="80" stroke-linecap="round"/>
</g>
<defs>
<filter id="filter0_f_234_128" x="0.989258" y="98.0696" width="1475.88" height="914.639" filterUnits="userSpaceOnUse" color-interpolation-filters="sRGB">
<feFlood flood-opacity="0" result="BackgroundImageFix"/>
<feBlend mode="normal" in="SourceGraphic" in2="BackgroundImageFix" result="shape"/>
<feGaussianBlur stdDeviation="75" result="effect1_foregroundBlur_234_128"/>
</filter>
<filter id="filter1_f_234_128" x="121.208" y="-0.00366211" width="1290.2" height="728.613" filterUnits="userSpaceOnUse" color-interpolation-filters="sRGB">
<feFlood flood-opacity="0" result="BackgroundImageFix"/>
<feBlend mode="normal" in="SourceGraphic" in2="BackgroundImageFix" result="shape"/>
<feGaussianBlur stdDeviation="75" result="effect1_foregroundBlur_234_128"/>
</filter>
<filter id="filter2_f_234_128" x="214.19" y="270.14" width="1270.4" height="749.64" filterUnits="userSpaceOnUse" color-interpolation-filters="sRGB">
<feFlood flood-opacity="0" result="BackgroundImageFix"/>
<feBlend mode="normal" in="SourceGraphic" in2="BackgroundImageFix" result="shape"/>
<feGaussianBlur stdDeviation="75" result="effect1_foregroundBlur_234_128"/>
</filter>
<filter id="filter3_f_234_128" x="143.068" y="96.7322" width="1347.11" height="781.429" filterUnits="userSpaceOnUse" color-interpolation-filters="sRGB">
<feFlood flood-opacity="0" result="BackgroundImageFix"/>
<feBlend mode="normal" in="SourceGraphic" in2="BackgroundImageFix" result="shape"/>
<feGaussianBlur stdDeviation="75" result="effect1_foregroundBlur_234_128"/>
</filter>
</defs>
</svg>
